<?xml version="1.0" encoding="UTF-8"?>
<svg version="1.1" xmlns="http://www.w3.org/2000/svg" width="1080" height="1350">
<path d="M0 0 C1.48620238 1.9746691 2.96402913 3.94931836 4.39453125 5.96484375 C4.86246094 6.61582031 5.33039063 7.26679687 5.8125 7.9375 C6.27269531 8.58589844 6.73289062 9.23429688 7.20703125 9.90234375 C8.76681856 11.72719295 10.26689475 13.11756529 12.11206055 14.63110352 C13.06508057 15.41283936 14.01810059 16.1945752 15 17 C10.87716485 36.14128934 6.31309618 55.14082747 1.52075195 74.12298584 C0.65186731 77.56766742 -0.21297931 81.01336221 -1.078125 84.45898438 C-2.25548874 89.14665484 -3.43406094 93.83401763 -4.61453247 98.52090645 C-7.42436271 109.67693738 -10.2143657 120.83790641 -13 132 C-14.0277504 132.19032303 -14.0277504 132.19032303 -15.07626343 132.38449097 C-15.97583771 132.55651031 -16.87541199 132.72852966 -17.80224609 132.90576172 C-18.69366302 133.07389374 -19.58507996 133.24202576 -20.50350952 133.41525269 C-23.60969557 134.14280761 -25.9663544 135.37789004 -28.625 137.125 C-29.46289062 137.66382813 -30.30078125 138.20265625 -31.1640625 138.7578125 C-31.76992188 139.16773438 -32.37578125 139.57765625 -33 140 C-42.13627637 129.96662156 -51.15594232 119.80497136 -59.6875 109.25 C-62.67995847 105.55182463 -65.78000478 102.00193029 -69 98.5 C-73.06229896 94.08091978 -76.89724369 89.53211246 -80.66796875 84.86328125 C-83.15426585 81.81059152 -85.6959687 78.80836407 -88.25 75.8125 C-96.01188342 66.68951488 -103.52866168 57.36167693 -111 48 C-109.85729156 44.95277749 -108.53425909 42.11242368 -107 39.25 C-105.38071723 36.16927068 -104.74345187 33.62951821 -104.3125 30.1875 C-103.88470459 28.04382324 -103.88470459 28.04382324 -103 26 C-101.25518799 25.02380371 -101.25518799 25.02380371 -99.04394531 24.39648438 C-98.22921753 24.15913574 -97.41448975 23.92178711 -96.57507324 23.67724609 C-95.30041199 23.34200928 -95.30041199 23.34200928 -94 23 C-93.2104895 22.78811035 -92.420979 22.5762207 -91.60754395 22.35791016 C-89.07250826 21.70084491 -86.53067419 21.08066949 -83.984375 20.46875 C-83.03032272 20.23617493 -82.07627045 20.00359985 -81.0933075 19.76397705 C-77.97971675 19.00579265 -74.8648753 18.2528878 -71.75 17.5 C-69.58332232 16.97336173 -67.41673823 16.44633832 -65.25024414 15.91894531 C-60.76571744 14.82769789 -56.28073462 13.73835421 -51.79541016 12.65039062 C-42.00571508 10.27455616 -32.22099193 7.87840258 -22.43591309 5.48364258 C-17.66455556 4.31620136 -12.89283045 3.15026526 -8.12109375 1.984375 C-6.5318196 1.59602888 -4.94254551 1.20768255 -3.35327148 0.81933594 C-2.24669189 0.54895508 -1.1401123 0.27857422 0 0 Z " fill="#0D0B29" transform="translate(338,755)"/>
<path d="M0 0 C1.6953125 1.8984375 1.6953125 1.8984375 3.125 4.375 C4.99106736 7.55235794 5.86097311 8.90731541 9 11 C8.40351074 14.43407932 7.52784778 17.42877384 6.14453125 20.625 C5.76876953 21.49769531 5.39300781 22.37039063 5.00585938 23.26953125 C4.61205078 24.17058594 4.21824219 25.07164062 3.8125 26 C3.43802734 26.87011719 3.06355469 27.74023438 2.67773438 28.63671875 C0.57316809 33.4988702 -1.6074742 38.31788252 -3.8515625 43.1171875 C-7.51853404 51.02856048 -10.85307488 59.06957091 -14.1875 67.125 C-14.84380894 68.7056909 -15.50022304 70.28633814 -16.15673828 71.86694336 C-20.25913423 81.75330206 -24.33177774 91.65179942 -28.375 101.5625 C-29.06178833 103.24593506 -29.06178833 103.24593506 -29.76245117 104.96337891 C-32.00017202 110.43736757 -32.00017202 110.43736757 -34 116 C-34.72445312 116.04898438 -35.44890625 116.09796875 -36.1953125 116.1484375 C-42.38014958 116.62269662 -42.38014958 116.62269662 -48.375 118.125 C-51.57440068 119.19146689 -52.82021319 119.11174768 -56 118 C-57.81465366 116.06397472 -59.29056722 114.26838361 -60.8125 112.125 C-61.46532959 111.24098511 -61.46532959 111.24098511 -62.13134766 110.33911133 C-63.43435936 108.56876166 -64.71868536 106.78609041 -66 105 C-66.66128906 104.09378906 -67.32257813 103.18757812 -68.00390625 102.25390625 C-69.28373155 100.49848826 -70.55822963 98.73917728 -71.828125 96.9765625 C-73.89596478 94.14258065 -76.00309327 91.34330155 -78.12207031 88.54760742 C-84.5159786 80.10237216 -90.62120918 71.47751473 -96.66796875 62.78125 C-99.5595599 58.62277996 -102.48700642 54.49180769 -105.4375 50.375 C-106.03292603 49.5387207 -106.03292603 49.5387207 -106.64038086 48.68554688 C-108.46686585 46.12222151 -110.31455518 43.5805931 -112.203125 41.0625 C-112.85796875 40.175625 -113.5128125 39.28875 -114.1875 38.375 C-114.75855469 37.61960937 -115.32960938 36.86421875 -115.91796875 36.0859375 C-117 34 -117 34 -116.7890625 31.859375 C-116 30 -116 30 -114.1875 27.875 C-111.60904554 24.48617414 -110.70859723 21.28846005 -109.61328125 17.20703125 C-107.48424988 14.29443386 -105.43173462 14.04088895 -101.97485352 13.44165039 C-100.99315186 13.29590576 -100.0114502 13.15016113 -99 13 C-97.80753662 12.8033374 -96.61507324 12.6066748 -95.38647461 12.40405273 C-90.86789713 11.66573277 -86.34100096 10.98685738 -81.8125 10.3125 C-80.97326996 10.1867157 -80.13403992 10.0609314 -79.26937866 9.93133545 C-62.80917321 7.47260534 -46.3158644 5.2723097 -29.8125 3.125 C-28.6123526 2.96802643 -27.4122052 2.81105286 -26.1756897 2.64932251 C-22.74913248 2.20237516 -19.32198215 1.76034847 -15.89453125 1.3203125 C-14.86602051 1.18623489 -13.83750977 1.05215729 -12.77783203 0.91401672 C-11.82481201 0.79302109 -10.87179199 0.67202545 -9.88989258 0.54736328 C-8.64856316 0.38797775 -8.64856316 0.38797775 -7.38215637 0.22537231 C-4.88104162 -0.01125448 -2.50908014 -0.16673387 0 0 Z " fill="#2F375E" transform="translate(243,634)"/>
<path d="M0 0 C7.4433664 7.364041 14.38993858 15.0888751 20.859375 23.3203125 C24.27674697 27.59826355 27.83816576 31.75269969 31.38671875 35.921875 C31.8151709 36.42783203 32.24362305 36.93378906 32.68505859 37.45507812 C33.59775131 38.52739886 34.51790682 39.59339476 35.44384766 40.65429688 C39 44.78208539 39 44.78208539 39 47 C39.66 47 40.32 47 41 47 C42.72340752 49.02735946 44.33929554 51.06432573 45.9375 53.1875 C48.92243492 57.11305932 51.91378446 60.97051788 55.2421875 64.61328125 C55.756604 65.18344971 56.27102051 65.75361816 56.80102539 66.34106445 C57.79195952 67.42867508 58.79864504 68.50218476 59.82202148 69.55932617 C61.17578125 71.0625 61.17578125 71.0625 63 74 C62.359375 77.203125 62.359375 77.203125 61 80 C59.53980235 83.7793351 58.81073683 87.18951483 58.44140625 91.203125 C58.35705322 92.10192383 58.2727002 93.00072266 58.18579102 93.92675781 C58.09382446 94.9530127 58.09382446 94.9530127 58 96 C33.9165804 101.77708757 9.81263429 107.46205026 -14.3125 113.0625 C-15.55612305 113.35144135 -16.79974609 113.64038269 -18.08105469 113.93807983 C-21.63323564 114.76309171 -25.18569513 115.58689101 -28.73828125 116.41015625 C-29.80424026 116.65764618 -30.87019928 116.90513611 -31.96846008 117.16012573 C-32.9550914 117.38838043 -33.94172272 117.61663513 -34.95825195 117.85180664 C-35.81530228 118.05036758 -36.6723526 118.24892853 -37.55537415 118.45350647 C-40.03029228 119.00677181 -42.51141771 119.51223864 -45 120 C-45.3403125 119.43152344 -45.680625 118.86304688 -46.03125 118.27734375 C-46.5159375 117.50519531 -47.000625 116.73304688 -47.5 115.9375 C-47.9640625 115.18339844 -48.428125 114.42929687 -48.90625 113.65234375 C-51.84224961 109.93304574 -55.37175251 107.02771373 -59 104 C-47.14639056 72.54217247 -34.7927474 41.13645034 -21.07128906 10.44018555 C-20.18729192 8.42661412 -19.39005121 6.37519291 -18.6171875 4.31640625 C-17 2 -17 2 -13.75 1.23046875 C-12.5125 1.21628906 -11.275 1.20210937 -10 1.1875 C-4.90821111 1.13222332 -4.90821111 1.13222332 0 0 Z " fill="#2F375E" transform="translate(279,649)"/>
<path d="M0 0 C2.96423099 2.02329161 5.07135697 4.63187801 7.31640625 7.390625 C7.79980469 7.97328125 8.28320312 8.5559375 8.78125 9.15625 C10.23799425 10.91584372 11.68485261 12.68310902 13.12890625 14.453125 C13.89847656 15.39285156 14.66804688 16.33257813 15.4609375 17.30078125 C16.91755796 19.08284484 18.3719534 20.86672924 19.82421875 22.65234375 C21.89656254 25.17076832 23.99801991 27.65906977 26.11572266 30.13916016 C30.58825064 35.37939608 34.97384069 40.6791662 39.25390625 46.078125 C39.72747559 46.67020752 40.20104492 47.26229004 40.68896484 47.87231445 C42.67111542 50.39335535 44.106151 52.38485924 45.12890625 55.453125 C45.78890625 55.453125 46.44890625 55.453125 47.12890625 55.453125 C48.9840101 57.51860146 50.58334124 59.72943502 52.234375 61.9609375 C54.04763291 64.43398824 54.04763291 64.43398824 55.9921875 66.4453125 C58.5922569 69.32630894 60.16583502 71.12757654 60.0546875 75.1171875 C59.50390625 77.953125 59.50390625 77.953125 58.77734375 80.546875 C57.94542909 84.27545636 58.03919116 87.63615588 58.12890625 91.453125 C34.34886803 104.4032181 9.5133507 115.1253532 -15.2265625 126.08203125 C-16.22976532 126.52662941 -16.22976532 126.52662941 -17.25323486 126.98020935 C-18.51501036 127.53822566 -19.77791729 128.09369244 -21.04208374 128.64627075 C-22.28694697 129.19543296 -23.52644355 129.7568877 -24.76089478 130.32907104 C-28.12422343 131.85657746 -30.09436926 132.453125 -33.87109375 132.453125 C-34.15082031 131.87304688 -34.43054688 131.29296875 -34.71875 130.6953125 C-35.11964844 129.91414062 -35.52054687 129.13296875 -35.93359375 128.328125 C-36.31644531 127.56242188 -36.69929688 126.79671875 -37.09375 126.0078125 C-38.75757399 123.61629407 -40.27065811 122.14698483 -42.48217773 120.29345703 C-43.43265236 119.49272263 -43.43265236 119.49272263 -44.40232849 118.67581177 C-44.88702103 118.27232513 -45.37171356 117.8688385 -45.87109375 117.453125 C-40.59459996 93.91429665 -35.19670206 70.40820668 -29.55859375 46.953125 C-29.31065063 45.92060608 -29.06270752 44.88808716 -28.80725098 43.82427979 C-25.56841228 30.34863718 -22.25598013 16.8928159 -18.87109375 3.453125 C-18.1941748 3.40051514 -17.51725586 3.34790527 -16.81982422 3.29370117 C-15.92666504 3.21611572 -15.03350586 3.13853027 -14.11328125 3.05859375 C-12.78852783 2.94874146 -12.78852783 2.94874146 -11.43701172 2.83666992 C-8.96716574 2.46748552 -7.22104353 1.86004512 -4.99609375 0.765625 C-1.87109375 -0.546875 -1.87109375 -0.546875 0 0 Z " fill="#0D0B29" transform="translate(380.87109375,771.546875)"/>
<path d="M0 0 C4.13305775 0.13347772 6.25968259 0.48821121 9.75 2.86450195 C12.31030444 5.7169489 14.52267035 8.65519478 16.71484375 11.7980957 C18.1598835 13.57979346 19.61815106 15.35084929 21.08984375 17.1105957 C21.82203125 18.01680664 22.55421875 18.92301758 23.30859375 19.85668945 C26.0207044 23.17198056 28.79604177 26.42666659 31.58984375 29.6730957 C32.09523682 30.2609082 32.60062988 30.8487207 33.12133789 31.4543457 C34.14479686 32.64466414 35.16831577 33.83493105 36.19189453 35.02514648 C39.55357572 38.93866505 42.90482129 42.86027046 46.21484375 46.81762695 C47.79936668 48.70667538 49.40159276 50.58112878 51.02734375 52.43481445 C52.01734375 53.60463867 52.01734375 53.60463867 53.02734375 54.7980957 C53.60097656 55.4580957 54.17460937 56.1180957 54.765625 56.7980957 C55.71484375 58.7980957 55.71484375 58.7980957 55.015625 61.18481445 C54.58636719 62.04719727 54.15710938 62.90958008 53.71484375 63.7980957 C52.99938236 65.73297486 52.29107775 67.67051497 51.58984375 69.6105957 C50.96484375 71.33976237 50.33984375 73.06892904 49.71484375 74.7980957 C40.5689354 76.2589275 31.41105488 77.50868338 22.21875 78.63793945 C20.85511288 78.80705247 19.49150161 78.97637403 18.12791443 79.14588928 C14.56433131 79.58851835 11.00050304 80.02913602 7.43658447 80.46905518 C1.78312234 81.16692863 -3.87014357 81.86637291 -9.52309036 82.56840897 C-10.90049644 82.73938605 -12.27793521 82.91010002 -13.65540695 83.08054733 C-23.28531606 84.27303889 -32.90520843 85.52447598 -42.50547791 86.93821716 C-47.12831666 87.59775126 -51.60224004 88.09923454 -56.28515625 87.7980957 C-58.22265625 85.9230957 -58.22265625 85.9230957 -59.28515625 83.7980957 C-59.28515625 83.1380957 -59.28515625 82.4780957 -59.28515625 81.7980957 C-59.94515625 81.7980957 -60.60515625 81.7980957 -61.28515625 81.7980957 C-62.91015625 80.2980957 -62.91015625 80.2980957 -64.28515625 78.7980957 C-63.07012582 73.6679672 -60.55451042 70.12749361 -57.51953125 65.9387207 C-55.3305718 62.86193154 -53.24172347 59.73689746 -51.16552734 56.58374023 C-14.08844154 0.28862552 -14.08844154 0.28862552 0 0 Z " fill="#095D9C" transform="translate(190.28515625,549.201904296875)"/>
<path d="M0 0 C1.6953125 1.6796875 1.6953125 1.6796875 3.125 3.875 C5.03094037 6.74936412 6.04996179 8.03330786 9 10 C7.84045629 25.94259582 6.34871367 41.81518558 4.45043945 57.68676758 C4.05977454 60.96033792 3.67887359 64.23494721 3.29882812 67.50976562 C1.86175334 79.73849758 0.17536013 91.88013642 -2 104 C-4.50651042 104.71614583 -7.01302083 105.43229167 -9.51953125 106.1484375 C-12.20467896 106.95266661 -12.20467896 106.95266661 -15 109 C-19.5 103.5 -24 98 -28.5 92.5 C-29.24894531 91.58476563 -29.99789062 90.66953125 -30.76953125 89.7265625 C-32.20499935 87.97182216 -33.63993796 86.21664845 -35.07421875 84.4609375 C-40.40776726 77.93448812 -45.76311869 71.42626774 -51.12768555 64.92529297 C-52.25440532 63.55877476 -53.37942576 62.19085298 -54.50244141 60.82128906 C-55.79818 59.24544786 -57.10690293 57.68029991 -58.41796875 56.1171875 C-60 54 -60 54 -60 52 C-60.66 52 -61.32 52 -62 52 C-63.9383786 49.76658661 -65.76186519 47.52763358 -67.5625 45.1875 C-68.06974609 44.54490234 -68.57699219 43.90230469 -69.09960938 43.24023438 C-71.27052883 40.45070406 -72.86992232 38.39023304 -74 35 C-73.26600828 33.13165744 -72.52876928 31.26447641 -71.76953125 29.40625 C-70.37838514 25.05627029 -70.2418955 20.53762588 -70 16 C-65.0073888 14.23081028 -59.97261859 12.96634598 -54.82421875 11.7578125 C-53.940793 11.54816864 -53.05736725 11.33852478 -52.14717102 11.12252808 C-49.32787739 10.45413505 -46.50770948 9.78951684 -43.6875 9.125 C-41.835228 8.68644474 -39.98301392 8.24764477 -38.13085938 7.80859375 C-34.49612166 6.94722961 -30.86043012 6.09005563 -27.22412109 5.23535156 C-23.82223437 4.43445419 -20.42455453 3.61861729 -17.02978516 2.78808594 C-16.25552689 2.60051727 -15.48126862 2.41294861 -14.68354797 2.21969604 C-13.24800825 1.87152722 -11.81349527 1.51908366 -10.3802948 1.16140747 C-6.8655411 0.31421383 -3.61797115 -0.35498633 0 0 Z " fill="#2F375F" transform="translate(461,727)"/>
<path d="M0 0 C45.25157233 0 45.25157233 0 57 8 C58.36125 8.8971875 58.36125 8.8971875 59.75 9.8125 C67.74016619 17.58071713 70.10175039 27.50790435 70.4375 38.375 C70.18985772 48.95901583 67.78777356 59.40301822 60 67 C43.27820234 81.05786444 20.40850794 77 0 77 C0 51.59 0 26.18 0 0 Z " fill="#2F375F" transform="translate(641,564)"/>
<path d="M0 0 C3.03079008 0.02196277 6.06006119 0.02733683 9.09082031 0.00195312 C12.43703369 -0.02391391 15.77945028 -0.00563047 19.12548828 0.02832031 C20.04861816 0.00882324 20.97174805 -0.01067383 21.92285156 -0.03076172 C25.84162586 0.05974633 28.05480488 0.27102007 31.09277344 2.87597656 C32.84484335 4.857375 34.43410646 6.8543615 35.93798828 9.02832031 C32.13573076 16.81485832 28.29807042 24.53659187 23.93798828 32.02832031 C19.95821964 38.88193363 16.41453932 45.9069981 12.92578125 53.02050781 C11.2803609 56.36503005 9.60799247 59.69602558 7.93798828 63.02832031 C7.36048828 64.18332031 6.78298828 65.33832031 6.18798828 66.52832031 C5.77548828 67.35332031 5.36298828 68.17832031 4.93798828 69.02832031 C4.22513672 69.01671875 3.51228516 69.00511719 2.77783203 68.99316406 C1.82005859 68.98414063 0.86228516 68.97511719 -0.12451172 68.96582031 C-1.06423828 68.95421875 -2.00396484 68.94261719 -2.97216797 68.93066406 C-6.1651431 68.92873789 -6.1651431 68.92873789 -9.59326172 69.86425781 C-13.06201172 70.02832031 -13.06201172 70.02832031 -15.87060547 67.85253906 C-16.77027463 66.82700337 -17.64566417 65.77980923 -18.49951172 64.71582031 C-18.97195312 64.164021 -19.44439453 63.61222168 -19.93115234 63.04370117 C-21.33414796 61.39156437 -22.70225021 59.71612365 -24.06201172 58.02832031 C-25.10035156 56.75601563 -25.10035156 56.75601563 -26.15966797 55.45800781 C-27.44038772 53.86434012 -28.71107697 52.26256526 -29.97216797 50.65332031 C-32.42022147 47.57838208 -34.95153599 44.58300685 -37.49951172 41.59082031 C-42.42812461 35.79618699 -47.26140379 29.92959672 -52.06201172 24.02832031 C-53.74823334 21.96477152 -55.43643593 19.90285361 -57.12451172 17.84082031 C-58.43701172 16.23665365 -59.74951172 14.63248698 -61.06201172 13.02832031 C-59.06201172 9.02832031 -57.06201172 5.02832031 -55.06201172 1.02832031 C-36.70090065 -0.19687011 -18.3935543 -0.14519742 0 0 Z " fill="#097BBA" transform="translate(268.06201171875,533.9716796875)"/>
<path d="M0 0 C2.13954426 2.13242562 3.82942476 4.53283495 5.5625 7 C6.07989746 7.71333496 6.59729492 8.42666992 7.13037109 9.16162109 C8.76916148 11.4303726 10.38631547 13.71333953 12 16 C13.03235993 17.4506576 14.06490841 18.90118103 15.09765625 20.3515625 C17.60416388 23.88329494 20.09227423 27.42763844 22.57714844 30.97460938 C24.37040039 33.52725492 26.17613264 36.07070826 27.99047852 38.60839844 C28.82186791 39.77450304 29.64800336 40.94437367 30.46850586 42.11816406 C32.34717058 44.78932431 34.26795564 47.30279418 36.43359375 49.75 C42.30383817 56.58674913 42.80158621 61.54723038 42.4765625 70.203125 C41.31198412 74.90802167 37.84323646 76.80282333 33.92431641 79.28515625 C32.95929199 79.85105469 31.99426758 80.41695312 31 81 C30.0414209 81.56589844 29.0828418 82.13179687 28.09521484 82.71484375 C25.04163711 84.47319184 21.96451235 86.1806514 18.875 87.875 C16.67162105 89.09198824 14.46849623 90.30943673 12.265625 91.52734375 C11.20021484 92.11499512 10.13480469 92.70264648 9.03710938 93.30810547 C6.31457827 94.82475664 3.61357683 96.37088418 0.921875 97.94140625 C0.18469238 98.3688916 -0.55249023 98.79637695 -1.31201172 99.23681641 C-2.65154809 100.01644243 -3.98680939 100.80347801 -5.31689453 101.59912109 C-6.83586773 102.47662893 -8.41433914 103.24968058 -10 104 C-13.41158256 102.86280581 -14.11854601 101.95657056 -16 99 C-16 98.34 -16 97.68 -16 97 C-16.9590625 96.62875 -16.9590625 96.62875 -17.9375 96.25 C-20 95 -20 95 -20.68017578 93.41503906 C-21.14387296 89.91359445 -20.63954227 86.58502755 -20.1796875 83.109375 C-20.08073685 82.3121402 -19.98178619 81.5149054 -19.87983704 80.69351196 C-19.664002 78.95682477 -19.44508832 77.22051808 -19.22348022 75.48455811 C-18.62538921 70.79127992 -18.05237348 66.09496845 -17.48046875 61.3984375 C-17.29920189 59.91309006 -17.29920189 59.91309006 -17.11427307 58.3977356 C-15.66492355 46.40517239 -14.42259246 34.39119897 -13.1875 22.375 C-13.07686218 21.30100952 -12.96622437 20.22701904 -12.85223389 19.1204834 C-12.23054813 13.08075355 -11.61320846 7.04059622 -11 1 C-3.65982193 -1.57262491 -3.65982193 -1.57262491 0 0 Z " fill="#2F375F" transform="translate(488,740)"/>
<path d="M0 0 C6.166875 -0.061875 12.33375 -0.12375 18.6875 -0.1875 C20.60522217 -0.21481201 22.52294434 -0.24212402 24.4987793 -0.27026367 C49.36206628 -0.47822326 49.36206628 -0.47822326 58.4140625 7.3515625 C64.3015439 13.47106287 65.11025282 19.70898821 65 28 C64.13392302 35.11587572 61.39071414 40.39895001 55.7421875 44.8671875 C49.68186273 48.80775742 42.60728521 50.13747087 35.48046875 50.09765625 C34.55903076 50.09515869 33.63759277 50.09266113 32.68823242 50.09008789 C31.53299072 50.08098389 30.37774902 50.07187988 29.1875 50.0625 C23.6496875 50.0315625 23.6496875 50.0315625 18 50 C18 58.91 18 67.82 18 77 C12.06 77 6.12 77 0 77 C0 51.59 0 26.18 0 0 Z " fill="#303860" transform="translate(502,564)"/>
<path d="M0 0 C49 0 49 0 57 7 C62.38183945 12.62646852 64.07085536 17.07770622 64.375 24.75 C64.22179872 31.61001269 63.00441548 37.58392182 58.375 42.84765625 C47.22664549 52.30053184 31.57356255 50.24829688 18 50 C18 58.91 18 67.82 18 77 C12.06 77 6.12 77 0 77 C0 51.59 0 26.18 0 0 Z " fill="#313960" transform="translate(351,564)"/>
<path d="M0 0 C6.6 0 13.2 0 20 0 C22.59299244 5.83423298 25.0826857 11.61392609 27.35546875 17.56640625 C27.65877609 18.35523697 27.96208344 19.14406769 28.27458191 19.95680237 C29.24811732 22.49106058 30.21805534 25.0266744 31.1875 27.5625 C31.85817977 29.3130097 32.52891578 31.06349786 33.19970703 32.81396484 C34.83988587 37.09728382 36.47616632 41.38207794 38.1104126 45.66766357 C38.92611048 47.80627511 39.74291771 49.94445905 40.56005859 52.08251953 C41.83681147 55.4281057 43.10768177 58.77583058 44.375 62.125 C44.73746826 63.07576416 45.09993652 64.02652832 45.47338867 65.00610352 C45.79927979 65.87291748 46.1251709 66.73973145 46.4609375 67.6328125 C46.73728027 68.36387207 47.01362305 69.09493164 47.29833984 69.84814453 C48 72 48 72 49 77 C42.4 77 35.8 77 29 77 C27.02 70.565 27.02 70.565 25 64 C15.43 64 5.86 64 -4 64 C-5.65 68.29 -7.3 72.58 -9 77 C-15.6 77 -22.2 77 -29 77 C-25.08332362 65.78353008 -21.02099173 54.64801487 -16.75 43.5625 C-16.18640855 42.09463914 -15.62301654 40.6267017 -15.05981445 39.15869141 C-13.64816975 35.48078875 -12.23387779 31.80391115 -10.81866455 28.12738037 C-9.52228758 24.75861728 -8.22804688 21.38903392 -6.93359375 18.01953125 C-4.62500696 12.01201327 -2.31347576 6.00563686 0 0 Z " fill="#2F375F" transform="translate(447,564)"/>
<path d="M0 0 C19.47 0 38.94 0 59 0 C59 5.28 59 10.56 59 16 C45.8 16.33 32.6 16.66 19 17 C19 20.96 19 24.92 19 29 C26.92 29.33 34.84 29.66 43 30 C43 34.95 43 39.9 43 45 C35.08 45.33 27.16 45.66 19 46 C19 50.62 19 55.24 19 60 C38.8 60.495 38.8 60.495 59 61 C59 66.28 59 71.56 59 77 C39.53 77 20.06 77 0 77 C0 51.59 0 26.18 0 0 Z " fill="#2F375F" transform="translate(574,564)"/>
<path d="M0 0 C8.90513708 0.75359325 13.46322664 7.34935759 19.07250977 13.60107422 C21.44102474 16.1008595 24.02210202 18.29714709 26.63525391 20.53564453 C30.86036603 24.22634014 34.86497365 28.14131304 38.875 32.0625 C39.75349609 32.89523437 40.63199219 33.72796875 41.53710938 34.5859375 C42.36146484 35.39546875 43.18582031 36.205 44.03515625 37.0390625 C44.78547119 37.76432129 45.53578613 38.48958008 46.30883789 39.23681641 C47.8125 41.4375 47.8125 41.4375 47.61108398 44.02490234 C47.01365322 45.82979711 46.41371283 47.63386152 45.8125 49.4375 C34.81597776 49.44580224 23.82003835 49.42199645 12.82368946 49.3572216 C7.71754078 49.32815186 2.61185177 49.31013486 -2.49438477 49.31738281 C-7.42250317 49.3239712 -12.34971284 49.30151902 -17.2776432 49.25894547 C-19.15746132 49.24780548 -21.0373715 49.24712215 -22.91719627 49.25707626 C-25.55151772 49.2692375 -28.18306053 49.2441924 -30.81713867 49.21044922 C-31.59397507 49.22267014 -32.37081146 49.23489105 -33.17118835 49.2474823 C-36.15295803 49.17867703 -38.49154748 49.03074963 -40.8147831 47.05035782 C-42.21064758 45.38919067 -42.21064758 45.38919067 -44.1875 42.4375 C-42.8566087 39.50953915 -41.38042608 37.34669729 -39.17578125 35.01171875 C-38.28536133 34.06329102 -38.28536133 34.06329102 -37.37695312 33.09570312 C-36.75755859 32.44537109 -36.13816406 31.79503906 -35.5 31.125 C-34.89994141 30.48626953 -34.29988281 29.84753906 -33.68164062 29.18945312 C-30.05208931 25.34158294 -26.34896983 21.58417848 -22.55932617 17.89379883 C-21.08108369 16.46447023 -21.08108369 16.46447023 -20.1875 14.4375 C-19.5275 14.4375 -18.8675 14.4375 -18.1875 14.4375 C-17.8575 13.4475 -17.5275 12.4575 -17.1875 11.4375 C-16.5275 11.4375 -15.8675 11.4375 -15.1875 11.4375 C-14.8575 10.4475 -14.5275 9.4575 -14.1875 8.4375 C-12.375 6.6484375 -12.375 6.6484375 -10.1875 4.8125 C-9.465625 4.20148438 -8.74375 3.59046875 -8 2.9609375 C-7.401875 2.45820313 -6.80375 1.95546875 -6.1875 1.4375 C-4.43468335 -0.31531665 -2.39662527 0.05382118 0 0 Z " fill="#1491CF" transform="translate(250.1875,477.5625)"/>
<path d="M0 0 C0.41427246 0.56477051 0.82854492 1.12954102 1.25537109 1.71142578 C2.12162109 2.45392578 2.98787109 3.19642578 3.88037109 3.96142578 C12.00483573 14.16730233 7.35761061 40.00887932 7.31787109 52.14892578 C7.31227118 54.82665932 7.30828537 57.50439228 7.30419922 60.18212891 C7.29326765 66.69191467 7.27660469 73.20166589 7.25537109 79.71142578 C4.28537109 80.70142578 4.28537109 80.70142578 1.25537109 81.71142578 C-3.74950305 75.52582429 -8.34718067 69.08059228 -12.9152832 62.5715332 C-16.13901712 57.98075715 -19.38324514 53.40638268 -22.66748047 48.85864258 C-23.75866412 47.34648561 -24.84527884 45.83102092 -25.92724609 44.31225586 C-28.52585864 40.6826292 -31.17128422 37.15168026 -34.04541016 33.73486328 C-39.30858861 27.35295341 -42.52201155 23.29730259 -41.93212891 14.77392578 C-41.5968769 12.74216362 -41.22298078 10.71433139 -40.74462891 8.71142578 C-33.41569013 6.10665946 -25.97298611 4.13608301 -18.41308594 2.32958984 C-17.03815892 1.99776755 -15.6651044 1.65809871 -14.29394531 1.31103516 C-12.29425486 0.80507226 -10.29024515 0.32215148 -8.28369141 -0.15576172 C-7.09984863 -0.44563965 -5.91600586 -0.73551758 -4.69628906 -1.03417969 C-1.74462891 -1.28857422 -1.74462891 -1.28857422 0 0 Z " fill="#0B5E9D" transform="translate(532.74462890625,710.28857421875)"/>
<path d="M0 0 C12.87 0 25.74 0 39 0 C39 4.62 39 9.24 39 14 C35.7 14.33 32.4 14.66 29 15 C29 30.51 29 46.02 29 62 C32.3 62.33 35.6 62.66 39 63 C39 67.62 39 72.24 39 77 C26.13 77 13.26 77 0 77 C0 72.38 0 67.76 0 63 C3.3 63 6.6 63 10 63 C10 46.83 10 30.66 10 14 C6.7 14 3.4 14 0 14 C0 9.38 0 4.76 0 0 Z " fill="#303860" transform="translate(722,564)"/>
<path d="M0 0 C0.79834259 0.02750336 1.59668518 0.05500671 2.41921997 0.08334351 C6.10438239 0.33515931 9.74704142 0.7353529 13.40600586 1.23754883 C14.58804344 1.39334663 14.58804344 1.39334663 15.79396057 1.55229187 C17.45399343 1.77232214 19.11365593 1.99516341 20.77294922 2.22070312 C23.24679754 2.55659253 25.7217287 2.88319855 28.19702148 3.20825195 C36.40025555 4.29661638 44.58771097 5.47569273 52.75756836 6.79223633 C53.49857285 6.908116 54.23957733 7.02399567 55.0030365 7.14338684 C58.84790285 7.78008029 62.29649817 8.630948 65.84741211 10.24926758 C65.84741211 10.90926758 65.84741211 11.56926758 65.84741211 12.24926758 C66.50741211 12.24926758 67.16741211 12.24926758 67.84741211 12.24926758 C66.54992585 15.74395403 65.02470805 18.7501157 62.98413086 21.86645508 C62.42661133 22.72110352 61.8690918 23.57575195 61.29467773 24.45629883 C60.42359375 25.77694336 60.42359375 25.77694336 59.53491211 27.12426758 C58.96579102 27.99696289 58.39666992 28.8696582 57.81030273 29.76879883 C56.69028203 31.47904859 55.56101082 33.18328163 54.421875 34.88085938 C53.43110093 36.37124537 52.46526666 37.87882178 51.53662109 39.40869141 C49.58280523 42.49380875 48.36149992 44.07252889 44.85913086 45.27661133 C35.68094592 45.02855228 31.57368682 41.98941049 25.34741211 35.49926758 C23.41503049 33.39743278 21.50748721 31.27745213 19.61694336 29.13793945 C17.9618578 27.37141877 16.26868463 25.86579168 14.37866211 24.35864258 C13.54334961 23.66254883 12.70803711 22.96645508 11.84741211 22.24926758 C11.84741211 21.58926758 11.84741211 20.92926758 11.84741211 20.24926758 C10.85741211 19.91926758 9.86741211 19.58926758 8.84741211 19.24926758 C8.84741211 18.58926758 8.84741211 17.92926758 8.84741211 17.24926758 C8.31631836 17.0455957 7.78522461 16.84192383 7.23803711 16.63208008 C3.81867106 14.65421148 1.3340329 11.94599858 -1.40258789 9.12426758 C-1.95688477 8.56094727 -2.51118164 7.99762695 -3.08227539 7.41723633 C-4.44363274 6.0324073 -5.79873648 4.64143554 -7.15258789 3.24926758 C-4.85127092 0.49535874 -3.57571711 -0.1279789 0 0 Z " fill="#36ABE2" transform="translate(271.152587890625,472.750732421875)"/>
<path d="M0 0 C5.6020962 0.9847049 9.87239125 1.73924258 14 6 C14 6.66 14 7.32 14 8 C14.59006836 8.26337158 15.18013672 8.52674316 15.78808594 8.7980957 C18.09572815 10.05201652 19.56727394 11.35195261 21.390625 13.23046875 C22.01364502 13.86509033 22.63666504 14.49971191 23.27856445 15.15356445 C24.25442505 16.16036255 24.25442505 16.16036255 25.25 17.1875 C31.1090739 23.18155237 31.1090739 23.18155237 37.3125 28.8125 C40.48104333 31.51837992 43.54578381 34.3124528 46.5625 37.1875 C47.43003906 38.00605469 48.29757812 38.82460938 49.19140625 39.66796875 C49.78824219 40.43753906 50.38507813 41.20710937 51 42 C50.61303711 44.14575195 50.61303711 44.14575195 50 46 C43.46362808 46.13075746 37.17089126 45.81695443 30.6953125 44.94140625 C29.85008026 44.8327977 29.00484802 44.72418915 28.13400269 44.61228943 C25.4635241 44.26829532 22.79424068 43.91595999 20.125 43.5625 C16.60723179 43.10186277 13.08890937 42.64566584 9.5703125 42.19140625 C8.7314299 42.08157913 7.8925473 41.97175201 7.02824402 41.8585968 C1.43239017 41.13928303 -4.14542588 40.62400673 -9.78344727 40.35449219 C-12 40 -12 40 -15.0625 37.6875 C-15.701875 36.800625 -16.34125 35.91375 -17 35 C-17.99807496 33.66522505 -18.99773002 32.33162782 -20 31 C-17.60795312 27.14347135 -15.21068591 23.29021355 -12.8125 19.4375 C-12.13896484 18.35146484 -11.46542969 17.26542969 -10.77148438 16.14648438 C-7.33716229 10.63481624 -3.85967534 5.22367711 0 0 Z " fill="#36ABE2" transform="translate(347,490)"/>
<path d="M0 0 C20.33165323 0 20.33165323 0 27.375 5.3125 C32.6620526 10.7254348 33.50402511 15.6298111 33.4375 22.875 C33.4674707 24.02162109 33.4674707 24.02162109 33.49804688 25.19140625 C33.49320275 30.89778114 32.16909341 35.23058802 29 40 C20.33166595 48.23491735 11.85414408 47 0 47 C0 31.49 0 15.98 0 0 Z " fill="#F0F0F1" transform="translate(659,579)"/>
<path d="M0 0 C18.52776978 -0.4342446 18.52776978 -0.4342446 25 3 C27.48076864 5.48076864 27.35091557 6.44218209 27.4375 9.875 C27.35557825 14.60598085 27.35557825 14.60598085 24.6875 17.5625 C21.13647382 19.4618861 18.519298 20.12429059 14.55078125 20.09765625 C13.78677002 20.09515869 13.02275879 20.09266113 12.2355957 20.09008789 C11.27097412 20.08098389 10.30635254 20.07187988 9.3125 20.0625 C4.7028125 20.0315625 4.7028125 20.0315625 0 20 C0 13.4 0 6.8 0 0 Z " fill="#EDEDEF" transform="translate(520,579)"/>
<path d="M0 0 C3.2296738 -0.08111739 6.45730014 -0.14055592 9.6875 -0.1875 C11.05551758 -0.22520508 11.05551758 -0.22520508 12.45117188 -0.26367188 C17.47061326 -0.31842942 20.93859476 -0.30840308 25 3 C27 5 27 5 27.4375 8.25 C26.85868173 13.21129943 25.57874043 14.58392959 22 18 C19.19447942 18.97083693 16.62522957 19.11875164 13.671875 19.09765625 C12.9509668 19.09515869 12.23005859 19.09266113 11.48730469 19.09008789 C10.58399414 19.08098389 9.68068359 19.07187988 8.75 19.0625 C5.8625 19.041875 2.975 19.02125 0 19 C0 12.73 0 6.46 0 0 Z " fill="#F1F2F2" transform="translate(369,580)"/>
<path d="M0 0 C15.84 0 31.68 0 48 0 C48 1.32 48 2.64 48 4 C42.9475014 5.14476618 37.89378638 6.28393881 32.83886719 7.41796875 C31.11977195 7.80445716 29.40101782 8.1924661 27.68261719 8.58203125 C25.21117051 9.14203535 22.73854476 9.69654209 20.265625 10.25 C19.49881409 10.42499023 18.73200317 10.59998047 17.94195557 10.78027344 C14.51324262 11.54252917 11.53252103 12 8 12 C4 6.88888889 4 6.88888889 4 4 C2.68 3.34 1.36 2.68 0 2 C0 1.34 0 0.68 0 0 Z " fill="#0E7DBB" transform="translate(481,698)"/>
<path d="M0 0 C0.66 0 1.32 0 2 0 C11 24.60245902 11 24.60245902 11 29 C4.73 29 -1.54 29 -8 29 C-7.33898679 24.37290752 -6.77077485 20.80474454 -5.37109375 16.50390625 C-5.05849609 15.53388672 -4.74589844 14.56386719 -4.42382812 13.56445312 C-4.09833984 12.57380859 -3.77285156 11.58316406 -3.4375 10.5625 C-3.10814453 9.54478516 -2.77878906 8.52707031 -2.43945312 7.47851562 C-1.63136468 4.98398174 -0.81809872 2.49126517 0 0 Z " fill="#E5E6E9" transform="translate(456,584)"/>
<path d="M0 0 C8.25 0 8.25 0 12 3 C14.02464319 6.16092254 14.19741512 8.36396771 13.8125 12.0625 C13.73644531 12.91972656 13.66039062 13.77695312 13.58203125 14.66015625 C13 17 13 17 10 20 C6.7 20 3.4 20 0 20 C0 13.4 0 6.8 0 0 Z " fill="#EFEFEF" transform="translate(661,662)"/>
<path d="M0 0 C2.47189851 1.94220597 2.97912836 2.93738507 4 6 C4.37279581 11.03274337 4.00975759 13.90672968 1 18 C0 19 0 19 -3.375 19.25 C-7 19 -7 19 -8.875 17.625 C-10.81931195 14.81654941 -11.15941486 13.00645096 -11.1875 9.625 C-11.20167969 8.85414063 -11.21585937 8.08328125 -11.23046875 7.2890625 C-10.97430821 4.74482391 -10.33294229 3.16957629 -9 1 C-5.82052093 -1.30238139 -3.6731055 -1.2243685 0 0 Z " fill="#E9E9E9" transform="translate(455,663)"/>
<path d="M0 0 C8.07692308 0 8.07692308 0 12 3 C13.97346221 6.94692443 13.43224974 11.69657247 13 16 C11.5625 18.6875 11.5625 18.6875 9 20 C6.03 20 3.06 20 0 20 C0 13.4 0 6.8 0 0 Z " fill="#EFEFEF" transform="translate(606,662)"/>
<path d="M0 0 C2.21484375 0.015625 2.21484375 0.015625 4.9375 0.25 C5.83339844 0.31703125 6.72929687 0.3840625 7.65234375 0.453125 C10 1 10 1 12 4 C11.66674962 7.19920361 11.01713841 9.94858478 10 13 C10.59793673 15.35188447 11.25881795 17.68925595 12 20 C11.34 20 10.68 20 10 20 C7 14.25 7 14.25 7 12 C5.35 12 3.7 12 2 12 C2 14.64 2 17.28 2 20 C1.01 20 0.02 20 -1 20 C-1.02888514 16.85418577 -1.04675923 13.70840531 -1.0625 10.5625 C-1.07087891 9.66466797 -1.07925781 8.76683594 -1.08789062 7.84179688 C-1.09111328 6.98779297 -1.09433594 6.13378906 -1.09765625 5.25390625 C-1.10551147 4.06776733 -1.10551147 4.06776733 -1.11352539 2.85766602 C-1 1 -1 1 0 0 Z " fill="#2A2A2A" transform="translate(467,662)"/>
<path d="M0 0 C5.53269156 0.2813233 5.53269156 0.2813233 7.6875 2.1875 C9.28229554 8.03508364 9.28229554 8.03508364 7.6875 11.125 C4.69676074 12.71383023 2.00748061 12.37542343 -1.3125 12.1875 C-1.3125 14.8275 -1.3125 17.4675 -1.3125 20.1875 C-2.3025 20.1875 -3.2925 20.1875 -4.3125 20.1875 C-4.34138514 17.04168577 -4.35925923 13.89590531 -4.375 10.75 C-4.38337891 9.85216797 -4.39175781 8.95433594 -4.40039062 8.02929688 C-4.40361328 7.17529297 -4.40683594 6.32128906 -4.41015625 5.44140625 C-4.41801147 4.25526733 -4.41801147 4.25526733 -4.42602539 3.04516602 C-4.22413797 -0.25840693 -3.39238528 0.19202181 0 0 Z " fill="#484848" transform="translate(527.3125,661.8125)"/>
<path d="M0 0 C1.32 0.33 2.64 0.66 4 1 C5.265625 3.94140625 5.265625 3.94140625 6.25 7.5625 C6.58515625 8.76003906 6.9203125 9.95757813 7.265625 11.19140625 C7.50796875 12.11824219 7.7503125 13.04507813 8 14 C8.25394531 13.07316406 8.50789063 12.14632812 8.76953125 11.19140625 C9.11371094 9.99386719 9.45789063 8.79632812 9.8125 7.5625 C10.31716797 5.77005859 10.31716797 5.77005859 10.83203125 3.94140625 C11.21746094 2.97074219 11.60289062 2.00007812 12 1 C12.99 0.67 13.98 0.34 15 0 C15 6.6 15 13.2 15 20 C14.34 20 13.68 20 13 20 C12.67 17.03 12.34 14.06 12 11 C11.01 13.97 10.02 16.94 9 20 C8.01 20 7.02 20 6 20 C5.01 16.37 4.02 12.74 3 9 C2.67 12.63 2.34 16.26 2 20 C1.34 20 0.68 20 0 20 C0 13.4 0 6.8 0 0 Z " fill="#262626" transform="translate(487,662)"/>
<path d="M0 0 C1.32 0.33 2.64 0.66 4 1 C5.81454588 5.21713904 6.79235998 9.55760991 8 14 C9.32 9.38 10.64 4.76 12 0 C12.99 0 13.98 0 15 0 C15 6.6 15 13.2 15 20 C14.34 20 13.68 20 13 20 C12.67 17.03 12.34 14.06 12 11 C11.01 13.97 10.02 16.94 9 20 C8.01 20 7.02 20 6 20 C5.01 16.04 4.02 12.08 3 8 C2.67 11.96 2.34 15.92 2 20 C1.34 20 0.68 20 0 20 C0 13.4 0 6.8 0 0 Z " fill="#191919" transform="translate(562,662)"/>
<path d="M0 0 C8.80645161 0 8.80645161 0 12 3 C12.4375 6.5625 12.4375 6.5625 12 10 C9.23776722 12.76223278 6.79293383 12.57856291 3 13 C2.67 15.31 2.34 17.62 2 20 C1.34 20 0.68 20 0 20 C0 13.4 0 6.8 0 0 Z " fill="#292929" transform="translate(347,662)"/>
<path d="M0 0 C2.0625 0.4375 2.0625 0.4375 4 1 C4.67286212 3.41509441 5.33846012 5.83180356 6 8.25 C6.19078125 8.93191406 6.3815625 9.61382813 6.578125 10.31640625 C7.49957044 13.70600912 8 16.45778976 8 20 C7.34 20 6.68 20 6 20 C5.67 18.02 5.34 16.04 5 14 C2.69 14.33 0.38 14.66 -2 15 C-2.99 17.475 -2.99 17.475 -4 20 C-4.66 20 -5.32 20 -6 20 C-2.97969543 2.97969543 -2.97969543 2.97969543 0 0 Z " fill="#262626" transform="translate(748,662)"/>
<path d="M0 0 C1.32 0.33 2.64 0.66 4 1 C5.65 7.27 7.3 13.54 9 20 C8.01 20 7.02 20 6 20 C5.67 18.02 5.34 16.04 5 14 C2.69 14 0.38 14 -2 14 C-2.66 15.98 -3.32 17.96 -4 20 C-4.66 19.67 -5.32 19.34 -6 19 C-5.19291375 16.01933931 -4.37842846 13.04075125 -3.5625 10.0625 C-3.33240234 9.21236328 -3.10230469 8.36222656 -2.86523438 7.48632812 C-2.64287109 6.67744141 -2.42050781 5.86855469 -2.19140625 5.03515625 C-1.98717041 4.2862915 -1.78293457 3.53742676 -1.57250977 2.76586914 C-1 1 -1 1 0 0 Z " fill="#303030" transform="translate(632,662)"/>
<path d="M0 0 C1.90722656 0.28173828 1.90722656 0.28173828 4 1 C5.13535537 3.67107289 5.98273365 6.10029466 6.75 8.875 C6.97042969 9.60847656 7.19085938 10.34195313 7.41796875 11.09765625 C8.31232275 14.14734785 9 16.80758423 9 20 C8.34 20 7.68 20 7 20 C6.34 18.35 5.68 16.7 5 15 C2.69 14.67 0.38 14.34 -2 14 C-2.33 15.98 -2.66 17.96 -3 20 C-3.66 20 -4.32 20 -5 20 C-4.35346673 13.04976736 -2.13972752 6.61822697 0 0 Z " fill="#393939" transform="translate(390,662)"/>
<path d="M0 0 C8.25 0 8.25 0 12 3 C14.02464319 6.16092254 14.19741512 8.36396771 13.8125 12.0625 C13.73644531 12.91972656 13.66039062 13.77695312 13.58203125 14.66015625 C13 17 13 17 10 20 C6.7 20 3.4 20 0 20 C0 13.4 0 6.8 0 0 Z M2 3 C2 7.95 2 12.9 2 18 C7.5237289 18.53779394 7.5237289 18.53779394 9.85546875 16.81640625 C11.37151886 14.41038816 11.36664419 12.76549253 11.3125 9.9375 C11.30863281 9.05964844 11.30476562 8.18179688 11.30078125 7.27734375 C11.20899334 4.80337231 11.20899334 4.80337231 9 3 C6.69 3 4.38 3 2 3 Z " fill="#292929" transform="translate(661,662)"/>
<path d="M0 0 C8.07692308 0 8.07692308 0 12 3 C13.97346221 6.94692443 13.43224974 11.69657247 13 16 C11.5625 18.6875 11.5625 18.6875 9 20 C6.03 20 3.06 20 0 20 C0 13.4 0 6.8 0 0 Z M2 3 C2 7.95 2 12.9 2 18 C7.61932646 18.62469505 7.61932646 18.62469505 9.875 16.5 C11.5471417 12.78412956 11.32319087 10.07220491 11 6 C10.34 5.01 9.68 4.02 9 3 C6.69 3 4.38 3 2 3 Z " fill="#323232" transform="translate(606,662)"/>
<path d="M0 0 C2.8125 0.9375 2.8125 0.9375 4.8125 2.9375 C4.8125 3.9275 4.8125 4.9175 4.8125 5.9375 C4.1525 5.9375 3.4925 5.9375 2.8125 5.9375 C2.4825 5.2775 2.1525 4.6175 1.8125 3.9375 C-0.1675 3.9375 -2.1475 3.9375 -4.1875 3.9375 C-5.50979189 6.58208379 -5.28427194 8.61511301 -5.25 11.5625 C-5.24097656 12.56539062 -5.23195313 13.56828125 -5.22265625 14.6015625 C-5.21105469 15.37242187 -5.19945312 16.14328125 -5.1875 16.9375 C-3.2075 16.9375 -1.2275 16.9375 0.8125 16.9375 C1.4725 15.6175 2.1325 14.2975 2.8125 12.9375 C1.4925 12.6075 0.1725 12.2775 -1.1875 11.9375 C-1.1875 10.9475 -1.1875 9.9575 -1.1875 8.9375 C0.7925 8.9375 2.7725 8.9375 4.8125 8.9375 C5.80245103 11.61036779 5.85824968 12.78969333 5 15.5625 C3.8125 17.9375 3.8125 17.9375 1.8125 19.9375 C-1.59675781 20.3821858 -3.53516313 20.29800196 -6.5625 18.625 C-9.19676938 14.26832371 -9.02716116 9.88054877 -8.1875 4.9375 C-5.67171715 1.08983211 -4.6427501 -0.09103432 0 0 Z " fill="#1D1D1D" transform="translate(700.1875,662.0625)"/>
<path d="M0 0 C2.47189851 1.94220597 2.97912836 2.93738507 4 6 C4.37279581 11.03274337 4.00975759 13.90672968 1 18 C0 19 0 19 -3.375 19.25 C-7 19 -7 19 -8.875 17.625 C-10.81931195 14.81654941 -11.15941486 13.00645096 -11.1875 9.625 C-11.20167969 8.85414063 -11.21585937 8.08328125 -11.23046875 7.2890625 C-10.97430821 4.74482391 -10.33294229 3.16957629 -9 1 C-5.82052093 -1.30238139 -3.6731055 -1.2243685 0 0 Z M-7.8125 3 C-9.69755947 6.17483701 -9.55661686 9.45335153 -9 13 C-7.66169042 15.4595774 -7.66169042 15.4595774 -6 17 C-3.05908413 16.81584568 -3.05908413 16.81584568 0 16 C1.8963031 13.67271892 2.00123599 11.98813451 2.3125 9 C1.96098598 5.62546543 1.52222236 4.2613028 -1 2 C-3.8180173 1.50684697 -5.30538007 1.61676142 -7.8125 3 Z " fill="#232323" transform="translate(455,663)"/>
<path d="M0 0 C0.66 0 1.32 0 2 0 C2.33 5.61 2.66 11.22 3 17 C5.31 17 7.62 17 10 17 C10 11.72 10 6.44 10 1 C10.99 1 11.98 1 13 1 C13.0814222 3.22855574 13.13938079 5.45797655 13.1875 7.6875 C13.22230469 8.92886719 13.25710938 10.17023437 13.29296875 11.44921875 C12.98103645 15.22983817 12.39539563 17.08386619 10 20 C6.5 20.5625 6.5 20.5625 3 20 C0.15085594 17.4638054 -0.00288727 15.96165699 -0.29296875 12.109375 C-0.27314945 10.65595991 -0.23754845 9.20268833 -0.1875 7.75 C-0.17396484 7.00492188 -0.16042969 6.25984375 -0.14648438 5.4921875 C-0.11127204 3.66114584 -0.05746851 1.83047831 0 0 Z " fill="#363636" transform="translate(585,662)"/>
<path d="M0 0 C1.37478516 0.01740234 1.37478516 0.01740234 2.77734375 0.03515625 C3.69644531 0.04417969 4.61554687 0.05320312 5.5625 0.0625 C6.27277344 0.07410156 6.98304688 0.08570313 7.71484375 0.09765625 C7.71484375 1.08765625 7.71484375 2.07765625 7.71484375 3.09765625 C4.74484375 3.09765625 1.77484375 3.09765625 -1.28515625 3.09765625 C-1.28515625 5.07765625 -1.28515625 7.05765625 -1.28515625 9.09765625 C1.68484375 9.09765625 4.65484375 9.09765625 7.71484375 9.09765625 C7.71484375 9.75765625 7.71484375 10.41765625 7.71484375 11.09765625 C4.74484375 11.09765625 1.77484375 11.09765625 -1.28515625 11.09765625 C-1.28515625 13.40765625 -1.28515625 15.71765625 -1.28515625 18.09765625 C1.68484375 18.09765625 4.65484375 18.09765625 7.71484375 18.09765625 C8.04484375 18.75765625 8.37484375 19.41765625 8.71484375 20.09765625 C4.75484375 20.09765625 0.79484375 20.09765625 -3.28515625 20.09765625 C-3.31199322 16.95176681 -3.33191527 13.80610354 -3.34765625 10.66015625 C-3.35603516 9.76232422 -3.36441406 8.86449219 -3.37304688 7.93945312 C-3.37626953 7.08544922 -3.37949219 6.23144531 -3.3828125 5.3515625 C-3.39066772 4.16542358 -3.39066772 4.16542358 -3.39868164 2.95532227 C-3.22779066 0.15895784 -2.79677051 0.11952011 0 0 Z " fill="#1E1E1E" transform="translate(546.28515625,661.90234375)"/>
<path d="M0 0 C1.31003937 5.35925197 1.31003937 5.35925197 0.0625 7.9375 C-3.3375989 9.6890661 -6.30019214 8.66717847 -10 8 C-10 5.36 -10 2.72 -10 0 C-3.375 -1.125 -3.375 -1.125 0 0 Z " fill="#575757" transform="translate(478,664)"/>
<path d="M0 0 C3.63 0 7.26 0 11 0 C11 0.99 11 1.98 11 3 C8.03 3 5.06 3 2 3 C2 5.31 2 7.62 2 10 C4.64 10 7.28 10 10 10 C10 10.66 10 11.32 10 12 C7.36 12 4.72 12 2 12 C2 14.64 2 17.28 2 20 C1.34 20 0.68 20 0 20 C0 13.4 0 6.8 0 0 Z " fill="#121212" transform="translate(426,662)"/>
<path d="M0 0 C3.96 0 7.92 0 12 0 C12 0.99 12 1.98 12 3 C10.35 3 8.7 3 7 3 C7 8.61 7 14.22 7 20 C6.34 20 5.68 20 5 20 C5 14.39 5 8.78 5 3 C3.35 3 1.7 3 0 3 C0 2.01 0 1.02 0 0 Z " fill="#030303" transform="translate(723,662)"/>
<path d="M0 0 C3.96 0 7.92 0 12 0 C12 0.99 12 1.98 12 3 C10.35 3 8.7 3 7 3 C7 8.61 7 14.22 7 20 C6.34 20 5.68 20 5 20 C5 14.39 5 8.78 5 3 C3.35 3 1.7 3 0 3 C0 2.01 0 1.02 0 0 Z " fill="#030303" transform="translate(406,662)"/>
<path d="M0 0 C0.99 0 1.98 0 3 0 C3.83857688 2.60258324 4.67103344 5.20685647 5.5 7.8125 C5.73847656 8.55048828 5.97695313 9.28847656 6.22265625 10.04882812 C7.19940136 13.13255196 8 15.74495809 8 19 C7.34 19 6.68 19 6 19 C5.34 17.35 4.68 15.7 4 14 C1.69 13.67 -0.62 13.34 -3 13 C-3.33 14.98 -3.66 16.96 -4 19 C-4.66 19 -5.32 19 -6 19 C-5.74438677 16.6568787 -5.40729228 14.32156597 -5 12 C-1.93109813 10.46554906 0.70094266 11.45015711 4 12 C3.52309796 10.37433394 3.04340334 8.74948689 2.5625 7.125 C2.29566406 6.22007812 2.02882813 5.31515625 1.75390625 4.3828125 C1.07386174 2.01724619 1.07386174 2.01724619 0 0 Z " fill="#1F1F1F" transform="translate(391,663)"/>
<path d="M0 0 C0.99 0.495 0.99 0.495 2 1 C2 6.61 2 12.22 2 18 C4.97 18 7.94 18 11 18 C11 18.66 11 19.32 11 20 C7.37 20 3.74 20 0 20 C0 13.4 0 6.8 0 0 Z " fill="#1C1C1C" transform="translate(367,662)"/>
<path d="M0 0 C0.99 0.495 0.99 0.495 2 1 C2 6.61 2 12.22 2 18 C4.97 18 7.94 18 11 18 C11 18.66 11 19.32 11 20 C7.37 20 3.74 20 0 20 C0 13.4 0 6.8 0 0 Z " fill="#171717" transform="translate(764,662)"/>
<path d="M0 0 C2.31 0 4.62 0 7 0 C7.66 0.66 8.32 1.32 9 2 C6.69 2 4.38 2 2 2 C2 7.61 2 13.22 2 19 C3.65 19 5.3 19 7 19 C7 19.33 7 19.66 7 20 C4.69 20 2.38 20 0 20 C0 13.4 0 6.8 0 0 Z " fill="#0E0E0E" transform="translate(661,662)"/>
<path d="M0 0 C0.33 0 0.66 0 1 0 C1 2.31 1 4.62 1 7 C3.64 6.67 6.28 6.34 9 6 C9.33 4.02 9.66 2.04 10 0 C10.66 0.33 11.32 0.66 12 1 C12.21917317 3.70313576 12.32851983 5.43958382 10.9375 7.8125 C8.00731249 9.60842137 5.3527047 9.18977574 2 9 C2 11.64 2 14.28 2 17 C1.34 17 0.68 17 0 17 C0 11.39 0 5.78 0 0 Z " fill="#1B1B1B" transform="translate(524,665)"/>
<path d="M0 0 C0.33 0 0.66 0 1 0 C1 5.28 1 10.56 1 16 C7.56161113 15.74366719 7.56161113 15.74366719 9.875 13.25 C11.08863527 10.82272946 11.62769367 8.68060559 12 6 C12.33 6 12.66 6 13 6 C13.47792208 13.16883117 13.47792208 13.16883117 11.5625 16.5 C9 18 9 18 0 18 C0 12.06 0 6.12 0 0 Z " fill="#161616" transform="translate(606,664)"/>
<path d="M0 0 C2.33294775 -0.04241723 4.66702567 -0.04092937 7 0 C8 1 8 1 8.125 3.5 C8 6 8 6 7 7 C4.66702567 7.04092937 2.33294775 7.04241723 0 7 C0 4.69 0 2.38 0 0 Z " fill="#E9E9E9" transform="translate(349,665)"/>
<path d="M0 0 C2.31 0 4.62 0 7 0 C7.38133299 1.9914056 7.71325582 3.99279077 8 6 C7 7 7 7 3.4375 7.0625 C2.303125 7.041875 1.16875 7.02125 0 7 C0 4.69 0 2.38 0 0 Z " fill="#E7E7E7" transform="translate(526,665)"/>
<path d="M0 0 C0.33 0 0.66 0 1 0 C1 1.65 1 3.3 1 5 C3.64 4.67 6.28 4.34 9 4 C9.66 6.64 10.32 9.28 11 12 C10.01 12 9.02 12 8 12 C7.67 10.02 7.34 8.04 7 6 C4.69 6 2.38 6 0 6 C-0.66 7.98 -1.32 9.96 -2 12 C-2.66 11.67 -3.32 11.34 -4 11 C-3.5247412 9.35303396 -3.04468109 7.70745272 -2.5625 6.0625 C-2.29566406 5.14597656 -2.02882813 4.22945312 -1.75390625 3.28515625 C-1 1 -1 1 0 0 Z " fill="#202020" transform="translate(630,670)"/>
<path d="M0 0 C0.99 0 1.98 0 3 0 C3 6.6 3 13.2 3 20 C2.34 20 1.68 20 1 20 C1.01740234 18.46279297 1.01740234 18.46279297 1.03515625 16.89453125 C1.04454022 15.533856 1.05363977 14.17317876 1.0625 12.8125 C1.07087891 12.13896484 1.07925781 11.46542969 1.08789062 10.77148438 C1.10606538 7.04565869 0.89299392 3.6211958 0 0 Z " fill="#101010" transform="translate(574,662)"/>
<path d="M0 0 C2.31 0 4.62 0 7 0 C7 1.98 7 3.96 7 6 C4.69 6 2.38 6 0 6 C0 4.02 0 2.04 0 0 Z " fill="#F1F1F1" transform="translate(469,665)"/>
<path d="M0 0 C0.99 0 1.98 0 3 0 C3 0.99 3 1.98 3 3 C2.34 3 1.68 3 1 3 C1.33 3.66 1.66 4.32 2 5 C2.0716735 7.55157655 2.09308442 10.07472971 2.0625 12.625 C2.05798828 13.33140625 2.05347656 14.0378125 2.04882812 14.765625 C2.03703875 16.51045275 2.01910324 18.255237 2 20 C1.34 20 0.68 20 0 20 C0 13.4 0 6.8 0 0 Z " fill="#0E0E0E" transform="translate(487,662)"/>
<path d="M0 0 C0.66 0 1.32 0 2 0 C1.96519531 0.67546875 1.93039062 1.3509375 1.89453125 2.046875 C1.86746094 2.93890625 1.84039062 3.8309375 1.8125 4.75 C1.77769531 5.63171875 1.74289062 6.5134375 1.70703125 7.421875 C2.05825141 10.51261243 2.89731317 11.74537076 5 14 C5.99 14.66 6.98 15.32 8 16 C4.625 15.75 4.625 15.75 1 15 C-0.96841356 12.15181318 -1.25021257 9.78428336 -1.1875 6.375 C-1.17783203 5.21097656 -1.17783203 5.21097656 -1.16796875 4.0234375 C-1 2 -1 2 0 0 Z " fill="#1C1C1C" transform="translate(445,666)"/>
<path d="M0 0 C1.98 0 3.96 0 6 0 C6.97791242 2.64036353 7.03638105 3.87266632 6.25 6.625 C5 9 5 9 2 11 C1.01 10.34 0.02 9.68 -1 9 C-0.0409375 8.5978125 -0.0409375 8.5978125 0.9375 8.1875 C3.33131686 7.11332248 3.33131686 7.11332248 4 4 C2.68 3.67 1.36 3.34 0 3 C0 2.01 0 1.02 0 0 Z " fill="#3A3A3A" transform="translate(699,671)"/>
<path d="M0 0 C0.99 0.33 1.98 0.66 3 1 C2.34 1 1.68 1 1 1 C1 1.99 1 2.98 1 4 C1.66 4 2.32 4 3 4 C2.67 9.28 2.34 14.56 2 20 C1.34 20 0.68 20 0 20 C0 13.4 0 6.8 0 0 Z " fill="#282828" transform="translate(562,662)"/>
<path d="M0 0 C0.66 0 1.32 0 2 0 C2.33 5.61 2.66 11.22 3 17 C3.66 17.33 4.32 17.66 5 18 C4.01 18.33 3.02 18.66 2 19 C-0.52775351 15.20836973 -0.22443035 12.19125969 -0.125 7.8125 C-0.11597656 7.06291016 -0.10695313 6.31332031 -0.09765625 5.54101562 C-0.07412578 3.69387346 -0.03825561 1.84689588 0 0 Z " fill="#1C1C1C" transform="translate(585,662)"/>
<path d="M0 0 C0.33 0 0.66 0 1 0 C1 6.6 1 13.2 1 20 C0.34 20 -0.32 20 -1 20 C-1.02888514 16.85418577 -1.04675923 13.70840531 -1.0625 10.5625 C-1.07087891 9.66466797 -1.07925781 8.76683594 -1.08789062 7.84179688 C-1.09111328 6.98779297 -1.09433594 6.13378906 -1.09765625 5.25390625 C-1.10551147 4.06776733 -1.10551147 4.06776733 -1.11352539 2.85766602 C-1 1 -1 1 0 0 Z " fill="#181818" transform="translate(714,662)"/>
<path d="M0 0 C0.33 0 0.66 0 1 0 C1 6.6 1 13.2 1 20 C0.34 20 -0.32 20 -1 20 C-1.02888514 16.85418577 -1.04675923 13.70840531 -1.0625 10.5625 C-1.07087891 9.66466797 -1.07925781 8.76683594 -1.08789062 7.84179688 C-1.09111328 6.98779297 -1.09433594 6.13378906 -1.09765625 5.25390625 C-1.10551147 4.06776733 -1.10551147 4.06776733 -1.11352539 2.85766602 C-1 1 -1 1 0 0 Z " fill="#121212" transform="translate(683,662)"/>
<path d="M0 0 C3.63 0 7.26 0 11 0 C11 0.99 11 1.98 11 3 C8.03 3 5.06 3 2 3 C2 5.31 2 7.62 2 10 C1.67 10 1.34 10 1 10 C0.67 6.7 0.34 3.4 0 0 Z " fill="#3E3E3E" transform="translate(426,662)"/>
<path d="M0 0 C2.9375 0.75 2.9375 0.75 4.9375 2.75 C4.9375 3.74 4.9375 4.73 4.9375 5.75 C4.2775 5.75 3.6175 5.75 2.9375 5.75 C2.6075 5.09 2.2775 4.43 1.9375 3.75 C-0.97902174 3.58318891 -0.97902174 3.58318891 -4.0625 3.75 C-4.7225 4.41 -5.3825 5.07 -6.0625 5.75 C-6.0625 4.43 -6.0625 3.11 -6.0625 1.75 C-3.0625 -0.25 -3.0625 -0.25 0 0 Z " fill="#343434" transform="translate(700.0625,662.25)"/>
<path d="M0 0 C3.96 0 7.92 0 12 0 C12 0.99 12 1.98 12 3 C10.35 3 8.7 3 7 3 C7 2.34 7 1.68 7 1 C6.34 1 5.68 1 5 1 C5 1.66 5 2.32 5 3 C3.35 3 1.7 3 0 3 C0 2.01 0 1.02 0 0 Z " fill="#515151" transform="translate(723,662)"/>
<path d="M0 0 C3.96 0 7.92 0 12 0 C12 0.99 12 1.98 12 3 C10.35 3 8.7 3 7 3 C7 2.34 7 1.68 7 1 C6.34 1 5.68 1 5 1 C5 1.66 5 2.32 5 3 C3.35 3 1.7 3 0 3 C0 2.01 0 1.02 0 0 Z " fill="#515151" transform="translate(406,662)"/>
<path d="M0 0 C0.99 0.66 1.98 1.32 3 2 C2.71125 2.825 2.4225 3.65 2.125 4.5 C0.90101549 8.30795181 -0.0616882 12.11270827 -1 16 C-1.33 15.34 -1.66 14.68 -2 14 C-2.66 14 -3.32 14 -4 14 C-3.79503906 13.32453125 -3.59007812 12.6490625 -3.37890625 11.953125 C-3.10949219 11.06109375 -2.84007812 10.1690625 -2.5625 9.25 C-2.16224609 7.92742188 -2.16224609 7.92742188 -1.75390625 6.578125 C-1.11531506 4.39434165 -0.53224167 2.21164502 0 0 Z " fill="#303030" transform="translate(573,665)"/>
<path d="M0 0 C1.88391785 3.26545761 2.49287967 6.28111761 3 10 C1.35 10 -0.3 10 -2 10 C-1.85950482 8.52031676 -1.71245174 7.04125484 -1.5625 5.5625 C-1.48128906 4.73878906 -1.40007813 3.91507813 -1.31640625 3.06640625 C-1 1 -1 1 0 0 Z " fill="#D7D7D7" transform="translate(749,664)"/>
<path d="M0 0 C0.66 0.33 1.32 0.66 2 1 C2.4140625 3.06640625 2.4140625 3.06640625 2.625 5.5625 C2.69976562 6.38878906 2.77453125 7.21507812 2.8515625 8.06640625 C2.90054687 8.70449219 2.94953125 9.34257813 3 10 C1.35 10 -0.3 10 -2 10 C-1.34 6.7 -0.68 3.4 0 0 Z " fill="#D9D9D9" transform="translate(391,664)"/>
<path d="M0 0 C2.56616632 3.84924948 2.55097676 6.4349304 3 11 C2.34 11 1.68 11 1 11 C0.34 9.02 -0.32 7.04 -1 5 C-3.97 4.505 -3.97 4.505 -7 4 C-6.67 3.01 -6.34 2.02 -6 1 C-6 1.66 -6 2.32 -6 3 C-3.52733235 2.65555119 -3.52733235 2.65555119 -1 2 C-0.67 1.34 -0.34 0.68 0 0 Z " fill="#353535" transform="translate(753,671)"/>
<path d="M0 0 C2.29633824 3.44450737 2.54016485 5.93812283 3 10 C1.35 10 -0.3 10 -2 10 C-1.34 6.7 -0.68 3.4 0 0 Z " fill="#DFDFDF" transform="translate(633,664)"/>
<path d="M0 0 C3.3 0 6.6 0 10 0 C10 0.99 10 1.98 10 3 C6.7 3 3.4 3 0 3 C0 2.01 0 1.02 0 0 Z " fill="#474747" transform="translate(544,662)"/>
<path d="M0 0 C0.33 0 0.66 0 1 0 C1.2493357 1.60115576 1.47378648 3.20620159 1.6875 4.8125 C1.81511719 5.70582031 1.94273437 6.59914063 2.07421875 7.51953125 C2 10 2 10 0.78125 11.84375 C-2.42669771 13.92610202 -5.37236865 12.65416303 -9 12 C-9 11.67 -9 11.34 -9 11 C-6.36 10.67 -3.72 10.34 -1 10 C-0.67 6.7 -0.34 3.4 0 0 Z " fill="#383838" transform="translate(672,669)"/>
<path d="M0 0 C0.66 0 1.32 0 2 0 C2 6.6 2 13.2 2 20 C1.67 20 1.34 20 1 20 C0.93941406 18.96359375 0.87882812 17.9271875 0.81640625 16.859375 C0.73196629 15.48957127 0.64732003 14.11978025 0.5625 12.75 C0.52318359 12.06808594 0.48386719 11.38617187 0.44335938 10.68359375 C0.2319977 7.33432421 -0.17284558 4.2443727 -1 1 C-0.67 0.67 -0.34 0.34 0 0 Z " fill="#090909" transform="translate(500,662)"/>
<path d="M0 0 C2.64 0.33 5.28 0.66 8 1 C8 1.33 8 1.66 8 2 C6.35 2.33 4.7 2.66 3 3 C2.67 5.31 2.34 7.62 2 10 C1.34 10 0.68 10 0 10 C0 6.7 0 3.4 0 0 Z " fill="#1A1A1A" transform="translate(347,672)"/>
<path d="M0 0 C0.33 0.66 0.66 1.32 1 2 C2.98 2 4.96 2 7 2 C7 2.33 7 2.66 7 3 C5.576875 3.0928125 5.576875 3.0928125 4.125 3.1875 C2.578125 3.5896875 2.578125 3.5896875 1 4 C-0.45291273 6.46255685 -0.45291273 6.46255685 -1 9 C-1.66 9 -2.32 9 -3 9 C-2.5020163 5.26512223 -2.12508244 3.18762365 0 0 Z " fill="#191919" transform="translate(745,673)"/>
<path d="M0 0 C2.14418558 3.21627837 2.67582137 5.19090105 3 9 C2.34 9.66 1.68 10.32 1 11 C0.01 8.03 -0.98 5.06 -2 2 C-1.34 2 -0.68 2 0 2 C0 1.34 0 0.68 0 0 Z " fill="#2F2F2F" transform="translate(490,663)"/>
<path d="M0 0 C2.33944736 0.28730055 4.6739143 0.61936779 7 1 C7 1.33 7 1.66 7 2 C5.02 2 3.04 2 1 2 C0.67 3.98 0.34 5.96 0 8 C-0.66 8 -1.32 8 -2 8 C-1.125 1.125 -1.125 1.125 0 0 Z " fill="#131313" transform="translate(387,674)"/>
<path d="M0 0 C0.99 0 1.98 0 3 0 C3.99 3.3 4.98 6.6 6 10 C5.34 10 4.68 10 4 10 C2.68 6.7 1.36 3.4 0 0 Z " fill="#1D1D1D" transform="translate(473,672)"/>
<path d="M0 0 C0.99 0 1.98 0 3 0 C3.33 2.97 3.66 5.94 4 9 C3.34 8.34 2.68 7.68 2 7 C2 5.68 2 4.36 2 3 C1.34 3 0.68 3 0 3 C0 2.01 0 1.02 0 0 Z " fill="#121212" transform="translate(563,663)"/>
</svg>
